<?xml version="1.0" standalone="no"?>
<!DOCTYPE svg PUBLIC "-//W3C//DTD SVG 20010904//EN"
 "http://www.w3.org/TR/2001/REC-SVG-20010904/DTD/svg10.dtd">
<svg version="1.0" xmlns="http://www.w3.org/2000/svg"
 width="483.000000pt" height="755.000000pt" viewBox="0 0 483.000000 755.000000"
 preserveAspectRatio="xMidYMid meet">

<g transform="translate(0.000000,755.000000) scale(0.100000,-0.100000)"
fill="#000000" stroke="none">
<path d="M2395 7163 c107 -186 191 -339 186 -341 -4 -1 -255 81 -557 183 -446
151 -544 181 -524 161 14 -13 140 -124 280 -246 140 -122 256 -226 258 -231 2
-5 -16 -7 -40 -4 -24 2 -209 9 -413 15 -203 6 -392 12 -420 15 -89 8 -22 -12
325 -95 184 -45 342 -84 350 -87 23 -8 -655 -140 -782 -153 -184 -17 -464 -23
-583 -12 -60 6 -111 9 -112 8 -4 -4 548 -255 662 -301 95 -38 259 -85 304 -86
24 0 24 -1 6 -9 -34 -16 -696 -140 -777 -147 l-78 -6 245 -141 c187 -107 241
-143 228 -148 -10 -5 -144 -42 -298 -83 -154 -42 -284 -78 -290 -80 -5 -2 158
-2 363 2 204 3 372 4 372 1 0 -6 -536 -483 -715 -638 -66 -56 -146 -121 -178
-144 -32 -22 -54 -42 -49 -44 6 -2 166 13 357 33 191 20 349 35 351 32 2 -2
-76 -163 -173 -358 -160 -318 -245 -510 -225 -509 4 1 95 92 202 204 107 112
196 203 197 202 1 -1 -56 -139 -127 -306 -72 -167 -129 -304 -127 -306 1 -1
38 40 82 91 44 52 83 94 86 94 7 1 -58 -205 -122 -388 -55 -157 -95 -250 -140
-332 -20 -38 -35 -69 -32 -69 3 0 63 38 133 85 135 89 275 197 400 308 41 36
76 65 77 63 5 -5 -94 -288 -132 -378 -19 -45 -34 -83 -32 -84 1 -2 65 64 141
147 77 82 141 147 143 145 2 -2 -5 -26 -16 -53 -11 -27 -31 -99 -46 -159 l-27
-110 -86 -44 c-85 -44 -88 -47 -124 -115 -34 -64 -57 -128 -102 -285 -10 -36
-37 -83 -77 -135 -46 -61 -106 -173 -250 -465 -199 -403 -256 -516 -346 -690
-65 -126 -87 -221 -105 -453 -13 -173 -3 -389 27 -545 l16 -83 -26 -45 c-23
-40 -24 -44 -8 -44 12 0 30 21 51 59 28 51 31 63 21 88 -46 121 -71 397 -50
558 25 185 33 205 156 371 104 139 240 344 229 344 -3 0 -34 -46 -71 -103 -72
-112 -175 -248 -218 -287 l-27 -25 20 50 c66 165 88 217 160 380 215 486 387
828 464 925 87 109 108 149 124 240 21 123 45 158 131 190 83 31 81 48 16
-169 -19 -62 -28 -80 -35 -70 -8 11 -9 10 -4 -4 3 -10 6 -22 6 -25 0 -4 19 22
42 57 l41 65 22 -61 c43 -119 119 -211 230 -278 33 -20 150 -81 260 -135 l200
-99 210 -181 c373 -321 527 -428 633 -437 101 -9 190 45 238 144 40 81 37 166
-10 347 -49 187 -119 333 -214 447 l-71 86 41 23 c22 12 43 18 47 14 34 -39
175 -257 213 -329 26 -49 48 -83 48 -75 0 29 -68 155 -154 284 -47 71 -86 135
-86 141 0 6 10 17 23 24 20 10 34 5 127 -51 129 -77 233 -119 410 -165 74 -19
147 -41 161 -49 66 -34 218 -245 267 -372 16 -42 50 -144 75 -227 37 -123 47
-169 51 -254 10 -205 -29 -432 -109 -637 -60 -153 -62 -160 -26 -94 l30 55 1
-53 c0 -29 7 -112 16 -185 16 -127 15 -380 -2 -489 -6 -37 -5 -38 25 -38 l31
0 0 220 c0 134 -6 261 -14 327 -32 238 -32 258 7 380 55 169 79 300 79 438 1
132 -9 208 -53 394 -26 109 -40 145 -116 290 -132 253 -162 277 -421 336 -177
40 -306 95 -414 177 l-67 51 15 36 c15 37 75 105 107 122 14 8 30 2 72 -26 67
-44 110 -59 209 -75 76 -13 77 -13 133 16 49 25 70 47 158 161 55 72 152 188
215 258 62 69 127 144 144 165 16 22 31 38 33 36 2 -2 10 -47 18 -101 17 -108
105 -419 126 -439 2 -3 3 45 1 105 -5 118 6 234 40 429 22 124 22 125 69 175
25 28 74 91 109 140 l62 90 -7 -80 c-4 -44 -15 -132 -26 -195 -10 -63 -19
-122 -19 -130 0 -14 87 137 130 225 104 216 204 551 235 788 28 214 24 203 51
124 49 -145 66 -252 66 -417 l0 -155 19 85 c87 401 55 869 -88 1285 -58 167
-104 231 -184 250 l-25 6 28 57 c43 87 55 193 39 349 -12 128 -75 526 -90 573
-5 15 -10 -57 -15 -185 -3 -115 -12 -239 -19 -275 l-14 -65 -7 40 c-69 384
-91 444 -244 648 -71 95 -338 374 -348 364 -3 -2 47 -136 110 -298 63 -161
114 -295 112 -296 -2 -2 -20 25 -41 59 -22 35 -64 89 -94 122 -78 82 -325 265
-506 376 -81 49 -88 60 108 -157 76 -84 136 -153 133 -153 -4 0 -87 45 -185
100 -99 54 -255 137 -348 183 -224 110 -446 253 -745 479 -64 48 -119 88 -122
88 -3 0 82 -152 189 -337z m1239 -2604 c-95 -148 -189 -266 -297 -373 -69 -68
-101 -105 -86 -101 133 40 214 71 266 99 l62 34 -32 -46 c-46 -64 -218 -243
-266 -277 -23 -15 -40 -29 -38 -31 5 -5 257 90 317 121 187 94 353 243 464
418 38 59 70 106 72 105 3 -4 -24 -166 -31 -185 -2 -7 -16 -13 -30 -13 -51 0
-98 -38 -191 -154 l-38 -48 29 -24 c35 -28 91 -32 121 -9 34 26 33 16 -4 -50
-24 -44 -42 -65 -54 -65 -20 0 -51 27 -80 70 l-18 25 11 -30 c12 -35 47 -75
65 -75 18 0 26 -17 11 -23 -7 -3 -34 15 -60 39 l-47 43 0 -47 c0 -59 22 -160
50 -235 28 -75 36 -69 10 7 -11 32 -23 80 -26 108 l-7 49 38 -25 c56 -38 88
-34 143 18 51 48 52 67 3 42 -40 -21 -93 -22 -85 -1 4 8 16 15 28 15 41 1 104
38 130 77 32 49 61 133 70 204 9 70 65 220 66 174 0 -53 -29 -228 -51 -300
-30 -103 -101 -241 -160 -314 l-52 -64 59 40 c32 22 64 43 71 47 14 8 -20 -86
-77 -217 -73 -164 -143 -269 -263 -395 -62 -65 -141 -155 -176 -200 -36 -46
-105 -126 -155 -177 -83 -86 -95 -94 -138 -100 -60 -9 -143 15 -223 63 -87 53
-335 263 -445 378 -53 54 -126 139 -164 187 l-69 89 1 151 c1 106 7 179 20
242 l18 90 8 -80 c4 -44 15 -107 24 -140 l17 -60 6 145 c8 176 32 268 119 446
56 116 60 121 102 137 24 9 47 17 51 17 4 0 7 -22 7 -49 0 -80 28 -147 88
-212 65 -71 118 -94 196 -86 29 3 73 15 97 27 51 26 122 80 115 87 -3 3 -19
-7 -37 -21 -50 -43 -104 -66 -168 -73 -53 -5 -67 -2 -116 22 -89 43 -155 157
-155 266 0 42 3 51 23 58 20 8 22 5 28 -41 19 -137 153 -207 265 -137 31 19
94 123 94 156 0 21 23 15 53 -13 35 -32 47 -63 47 -117 l1 -42 19 24 c22 26
27 90 10 122 -19 34 10 22 53 -23 33 -35 37 -38 22 -13 -30 50 -57 75 -97 87
l-38 11 99 42 c102 44 250 120 310 161 19 13 36 22 38 20 2 -2 -17 -37 -43
-77z m-359 5 c-22 -19 -70 -55 -107 -81 l-68 -46 -70 12 c-39 7 -68 16 -65 20
8 7 326 130 340 130 6 0 -8 -15 -30 -35z m820 -447 c-26 -82 -63 -129 -118
-149 -46 -17 -48 -17 -35 0 7 9 38 51 69 92 30 41 64 90 75 108 26 45 31 18 9
-51z m-2028 -564 c-3 -10 -5 -2 -5 17 0 19 2 27 5 18 2 -10 2 -26 0 -35z m-36
-113 c-6 -65 -11 -221 -10 -347 l1 -228 19 127 c16 108 80 362 94 377 9 9 16
-7 43 -100 l27 -94 6 65 c4 36 5 83 3 105 -3 34 -2 35 4 10 6 -27 9 -21 26 48
10 44 22 75 26 70 4 -4 15 -39 24 -78 36 -147 134 -374 255 -593 50 -91 61
-119 56 -142 -3 -15 -47 -99 -96 -185 -108 -187 -120 -230 -96 -328 15 -64 29
-90 102 -191 27 -37 35 -58 35 -91 0 -56 -38 -105 -81 -105 -36 0 -77 53 -150
195 -33 64 -72 122 -108 160 -83 88 -129 176 -146 282 l-15 88 5 -80 c5 -104
29 -216 61 -284 38 -84 131 -218 206 -297 l68 -71 -58 0 c-31 0 -64 -2 -74 -4
-9 -2 -78 47 -171 123 -227 186 -293 231 -492 330 -325 163 -383 216 -459 419
l-18 46 159 256 c87 140 159 255 160 253 1 -1 -18 -65 -42 -141 -25 -77 -45
-142 -45 -145 0 -3 30 40 65 95 36 55 65 97 65 93 0 -3 -13 -36 -30 -73 -41
-92 -37 -94 11 -5 44 82 149 243 198 304 l30 38 3 -153 c3 -144 4 -152 17
-120 13 31 15 33 22 15 7 -18 8 -18 8 0 2 54 132 376 152 376 5 0 6 -51 3
-112 l-5 -113 26 55 c15 30 47 111 73 180 26 69 48 117 50 107 2 -10 -1 -71
-7 -137z m26 -27 c-3 -10 -5 -4 -5 12 0 17 2 24 5 18 2 -7 2 -21 0 -30z m342
-66 c8 -10 7 -14 -4 -14 -8 0 -15 6 -15 14 0 7 2 13 4 13 2 0 9 -6 15 -13z
m67 -79 l29 -33 -32 29 c-18 17 -33 31 -33 33 0 8 8 1 36 -29z m-419 -40 c-2
-13 -4 -3 -4 22 0 25 2 35 4 23 2 -13 2 -33 0 -45z m498 -48 c27 -27 47 -50
44 -50 -3 0 -27 23 -54 50 -27 28 -47 50 -44 50 3 0 27 -22 54 -50z m145 -155
c47 -47 82 -85 80 -85 -3 0 -43 38 -90 85 -47 47 -82 85 -80 85 3 0 43 -38 90
-85z m121 -112 c13 -16 12 -17 -3 -4 -17 13 -22 21 -14 21 2 0 10 -8 17 -17z
m50 -40 c13 -16 12 -17 -3 -4 -17 13 -22 21 -14 21 2 0 10 -8 17 -17z m-21
-77 c0 -2 -8 -10 -17 -17 -16 -13 -17 -12 -4 4 13 16 21 21 21 13z m-509 -953
c13 -16 12 -17 -3 -4 -10 7 -18 15 -18 17 0 8 8 3 21 -13z m79 -124 c10 -6 1
-8 -28 -9 -24 0 -51 -4 -60 -9 -12 -6 -24 -5 -36 5 -20 14 -17 17 29 27 24 6
74 -2 95 -14z m-49 -66 c13 -16 12 -17 -3 -4 -10 7 -18 15 -18 17 0 8 8 3 21
-13z"/>
<path d="M2741 4165 c-1 -36 55 -139 97 -177 73 -66 149 -70 247 -13 36 20 86
65 73 65 -2 0 -26 -7 -52 -16 -62 -21 -166 -15 -222 14 -39 20 -90 69 -126
122 -15 23 -17 23 -17 5z"/>
<path d="M3782 4040 c0 -14 2 -19 5 -12 2 6 2 18 0 25 -3 6 -5 1 -5 -13z"/>
<path d="M3864 3529 c-10 -12 -65 -44 -120 -70 -110 -53 -167 -97 -70 -54 141
62 188 91 207 127 13 24 6 23 -17 -3z"/>
<path d="M3530 3500 c8 -5 26 -10 40 -10 20 0 22 2 10 10 -8 5 -26 10 -40 10
-20 0 -22 -2 -10 -10z"/>
<path d="M3373 3240 c26 -17 127 -24 157 -12 20 9 9 11 -57 11 -45 1 -90 4
-100 7 -17 5 -17 5 0 -6z"/>
<path d="M3070 3228 c0 -5 47 -8 104 -8 57 0 113 -3 123 -6 14 -4 15 -4 3 4
-18 12 -230 21 -230 10z"/>
<path d="M3490 3189 c-25 -4 -58 -6 -75 -3 -25 4 -27 3 -13 -6 20 -12 165 -3
174 11 6 10 -23 10 -86 -2z"/>
<path d="M3265 3075 c57 -25 117 -27 160 -6 34 17 35 19 10 13 -38 -9 -108 -9
-160 0 -40 6 -40 6 -10 -7z"/>
<path d="M2041 2504 c0 -11 3 -14 6 -6 3 7 2 16 -1 19 -3 4 -6 -2 -5 -13z"/>
<path d="M1046 2445 c4 -22 11 -47 16 -55 6 -10 7 -3 2 20 -10 54 -25 83 -18
35z"/>
<path d="M2958 2335 c6 -11 36 -45 67 -75 119 -115 186 -243 241 -461 31 -122
38 -173 48 -334 l12 -190 9 100 c5 55 9 150 9 210 1 97 -3 120 -28 195 -39
113 -124 293 -178 377 -40 61 -207 226 -180 178z"/>
<path d="M1080 2321 c0 -6 19 -23 43 -40 57 -39 377 -205 383 -198 8 7 -45 37
-206 116 -80 40 -162 86 -182 102 -21 16 -38 25 -38 20z"/>
<path d="M3071 1973 c-1 -12 11 -70 26 -130 26 -106 27 -114 27 -448 1 -187
-2 -369 -6 -405 l-7 -65 14 43 c29 89 57 290 62 449 5 144 3 172 -16 255 -28
117 -99 330 -100 301z"/>
<path d="M2970 1964 c0 -10 9 -73 20 -139 27 -166 26 -219 -6 -279 -32 -60
-26 -69 11 -16 41 59 44 147 12 313 -24 122 -37 164 -37 121z"/>
<path d="M1980 1770 c98 -83 377 -306 449 -357 96 -69 205 -113 283 -113 39 0
55 7 107 46 71 53 76 72 7 24 -75 -51 -109 -62 -160 -50 -123 27 -214 84 -434
268 -122 102 -219 174 -262 196 -8 4 -4 -2 10 -14z"/>
<path d="M3571 1655 c-22 -431 -30 -508 -74 -695 -19 -85 -22 -120 -21 -325 1
-126 6 -255 12 -286 6 -31 13 -107 17 -170 8 -151 13 -179 30 -179 18 0 19 25
4 195 l-10 125 29 88 c34 98 135 510 151 617 10 62 16 118 37 355 4 47 3 61
-5 50 -6 -8 -11 -29 -11 -46 0 -75 -44 -205 -107 -320 -15 -28 -45 -90 -67
-138 -21 -47 -40 -85 -42 -83 -2 2 10 89 27 193 25 151 32 229 36 389 3 110 3
214 1 230 l-5 30 -2 -30z"/>
<path d="M684 1591 c-56 -19 -134 -62 -154 -85 -7 -9 21 5 63 30 95 58 134 63
251 34 232 -58 402 -161 512 -311 48 -66 144 -256 193 -385 71 -184 110 -272
203 -456 74 -148 93 -197 116 -295 16 -64 33 -118 39 -120 13 -5 14 -10 -23
137 -17 70 -41 133 -71 190 -26 47 -61 112 -79 145 -17 33 -71 159 -119 280
-119 301 -191 444 -277 545 -38 44 -90 96 -116 116 -66 48 -210 116 -322 152
-129 40 -157 43 -216 23z"/>
<path d="M726 1329 c-3 -8 -17 -57 -31 -109 -40 -142 -83 -240 -227 -510 -156
-294 -153 -288 -140 -275 16 16 251 450 303 560 54 114 86 207 98 286 9 51 7
78 -3 48z"/>
<path d="M2198 925 c-3 -16 -14 -104 -23 -195 -9 -91 -27 -205 -40 -255 -31
-122 -36 -155 -25 -155 6 0 10 6 10 14 0 7 14 60 30 117 24 80 34 145 46 284
15 177 16 253 2 190z"/>
</g>
</svg>
